# xmcd
#
# Track frame offsets:
#	183
#	17248
#	40240
#	60023
#	83275
#	96203
#	116365
#	130475
#	148065
#	165230
#
# Disc length: 2495 seconds
#
# Revision: 5
# Processed by: cddbd v1.4PL0 Copyright (c) Steve Scherf et al.
# Submitted via: audiograbber 1.81.03
#
DISCID=7109bd0a
DTITLE=Dan Baird - Love Songs For The Hearing Impaired
DYEAR=1992
DGENRE=Rock
TTITLE0=The One I Am
TTITLE1=Julie and Lucky
TTITLE2=I Love You Period
TTITLE3=Look At What You Started
TTITLE4=Seriously Gone
TTITLE5=Pick Up The Knife
TTITLE6=Knocked Up
TTITLE7=Baby Talk
TTITLE8=Lost Highway
TTITLE9=Dixie Beauxderaunt
EXTD=
EXTT0=
EXTT1=
EXTT2=
EXTT3=
EXTT4=
EXTT5=
EXTT6=
EXTT7=
EXTT8=
EXTT9=
PLAYORDER=
